<?xml version="1.0" encoding="UTF-8"?><svg id="Layer_1" xmlns="http://www.w3.org/2000/svg" viewBox="0 0 194.85 58.85"><defs><style>.cls-1{fill:#050505;}.cls-2{fill:#f1c338;}.cls-3{fill:#fc995a;}.cls-4{fill:#5d9eff;}.cls-5{fill:#58c193;}.cls-6{fill:#c773e7;}.cls-7{fill:#ff7895;}</style></defs><rect class="cls-7" x=".18" y="52.07" width="6.79" height="6.79"/><rect class="cls-4" x="12.71" y="52.07" width="6.79" height="6.79"/><rect class="cls-5" x="25.25" y="52.07" width="6.79" height="6.79"/><rect class="cls-3" x="37.79" y="52.07" width="6.79" height="6.79"/><rect class="cls-6" x="50.32" y="52.07" width="6.79" height="6.79"/><rect class="cls-2" x="62.86" y="52.07" width="6.79" height="6.79"/><path class="cls-1" d="M.15,19.01V0h11.6v2.36H2.75v5.92h8.26v2.39H2.75v8.34H.15Z"/><path class="cls-1" d="M14.84,19.01V5.68h2.42v1.6h.38c.24-.58.59-1,1.07-1.26.48-.26,1.1-.39,1.86-.39h1.58v2.25h-1.71c-.92,0-1.68.25-2.25.76-.58.51-.87,1.3-.87,2.39v7.99h-2.47Z"/><path class="cls-1" d="M30.81,19.39c-1.34,0-2.52-.29-3.53-.86-1.01-.57-1.8-1.37-2.36-2.4-.56-1.03-.84-2.24-.84-3.61v-.33c0-1.39.28-2.61.84-3.64.56-1.03,1.34-1.83,2.34-2.4,1-.57,2.15-.86,3.45-.86s2.39.28,3.35.83c.97.55,1.72,1.33,2.27,2.34.54,1,.81,2.19.81,3.54v1h-10.57c.04,1.3.46,2.33,1.28,3.08.81.75,1.82,1.13,3.01,1.13,1.1,0,1.95-.25,2.53-.75.58-.5,1.01-1.08,1.3-1.75l2.09,1.03c-.25.54-.62,1.1-1.1,1.66-.48.56-1.11,1.03-1.89,1.41-.78.38-1.77.57-2.99.57ZM26.6,11.05h8.01c-.07-1.12-.46-2-1.17-2.62-.71-.62-1.63-.94-2.77-.94s-2.04.31-2.76.94c-.72.62-1.15,1.5-1.32,2.62Z"/><path class="cls-1" d="M46.78,19.39c-1.34,0-2.52-.29-3.53-.86-1.01-.57-1.8-1.37-2.36-2.4-.56-1.03-.84-2.24-.84-3.61v-.33c0-1.39.28-2.61.84-3.64.56-1.03,1.34-1.83,2.34-2.4,1-.57,2.15-.86,3.45-.86s2.39.28,3.35.83c.97.55,1.72,1.33,2.27,2.34.54,1,.81,2.19.81,3.54v1h-10.57c.04,1.3.46,2.33,1.28,3.08.81.75,1.82,1.13,3.01,1.13,1.1,0,1.95-.25,2.53-.75.58-.5,1.01-1.08,1.3-1.75l2.09,1.03c-.25.54-.62,1.1-1.1,1.66-.48.56-1.11,1.03-1.89,1.41-.78.38-1.77.57-2.99.57ZM42.57,11.05h8.01c-.07-1.12-.46-2-1.17-2.62-.71-.62-1.63-.94-2.77-.94s-2.04.31-2.76.94c-.72.62-1.15,1.5-1.32,2.62Z"/><path class="cls-1" d="M63.54,19.01V0h4.92l4.59,17.33h.41L78.04,0h4.94v19.01h-2.53V1.79h-.41l-4.59,17.22h-4.43l-4.59-17.22h-.38v17.22h-2.53Z"/><path class="cls-1" d="M92.3,19.26c-.98,0-1.87-.22-2.66-.65-.8-.43-1.43-1.07-1.89-1.9-.46-.83-.69-1.83-.69-2.99V5.68h2.47v7.85c0,1.25.31,2.16.92,2.74.62.58,1.47.87,2.55.87,1.21,0,2.2-.4,2.95-1.21s1.13-1.98,1.13-3.52v-6.74h2.47v13.34h-2.42v-2.12h-.41c-.27.58-.75,1.12-1.43,1.62-.68.5-1.68.75-3,.75Z"/><path class="cls-1" d="M109.28,19.39c-1.68,0-3.09-.38-4.21-1.14-1.12-.76-1.81-1.94-2.06-3.53l2.34-.54c.14.81.4,1.45.77,1.91.37.46.83.79,1.38.98.55.19,1.14.29,1.78.29.94,0,1.68-.18,2.21-.54.53-.36.8-.85.8-1.47s-.25-1.06-.76-1.33-1.22-.49-2.15-.65l-1-.16c-.89-.16-1.69-.4-2.42-.71-.72-.31-1.3-.73-1.73-1.26-.42-.53-.64-1.21-.64-2.02,0-1.23.47-2.19,1.4-2.88.93-.69,2.17-1.03,3.71-1.03s2.73.34,3.68,1.02c.95.68,1.56,1.62,1.83,2.81l-2.28.62c-.18-.89-.55-1.51-1.11-1.87-.56-.36-1.27-.54-2.12-.54s-1.49.15-1.97.46c-.48.31-.72.75-.72,1.33s.23,1.01.69,1.29c.46.28,1.08.48,1.86.61l1.03.19c.96.16,1.82.39,2.59.68.77.29,1.38.7,1.83,1.22.45.53.68,1.23.68,2.12,0,1.32-.49,2.35-1.48,3.07-.99.72-2.3,1.09-3.95,1.09Z"/><path class="cls-1" d="M124.24,19.39c-1.34,0-2.52-.29-3.53-.86-1.01-.57-1.8-1.37-2.36-2.4-.56-1.03-.84-2.24-.84-3.61v-.33c0-1.39.28-2.61.84-3.64.56-1.03,1.34-1.83,2.34-2.4,1-.57,2.15-.86,3.45-.86s2.38.28,3.35.83c.97.55,1.72,1.33,2.27,2.34s.81,2.19.81,3.54v1h-10.57c.04,1.3.46,2.33,1.28,3.08.82.75,1.82,1.13,3.02,1.13,1.1,0,1.95-.25,2.53-.75.58-.5,1.01-1.08,1.3-1.75l2.09,1.03c-.25.54-.62,1.1-1.1,1.66-.48.56-1.11,1.03-1.89,1.41-.78.38-1.77.57-2.99.57ZM120.03,11.05h8.01c-.07-1.12-.46-2-1.17-2.62s-1.63-.94-2.77-.94-2.04.31-2.76.94c-.72.62-1.15,1.5-1.32,2.62Z"/><path class="cls-1" d="M139.21,19.26c-.98,0-1.87-.22-2.66-.65s-1.43-1.07-1.89-1.9c-.46-.83-.69-1.83-.69-2.99V5.68h2.47v7.85c0,1.25.31,2.16.92,2.74.62.58,1.47.87,2.55.87,1.21,0,2.2-.4,2.95-1.21.75-.81,1.13-1.98,1.13-3.52v-6.74h2.47v13.34h-2.42v-2.12h-.41c-.27.58-.75,1.12-1.43,1.62-.68.5-1.68.75-3,.75Z"/><path class="cls-1" d="M150.78,19.01V5.68h2.42v1.63h.38c.25-.47.67-.9,1.25-1.29.58-.39,1.37-.58,2.36-.58s1.83.22,2.46.65c.62.43,1.08.98,1.37,1.63h.41c.31-.63.77-1.17,1.39-1.62.62-.44,1.48-.67,2.58-.67.87,0,1.64.18,2.31.54.67.36,1.2.89,1.6,1.58.4.69.6,1.52.6,2.5v8.96h-2.47v-8.75c0-.85-.24-1.52-.72-2-.48-.48-1.15-.72-2.02-.72-.92,0-1.67.3-2.25.9-.58.6-.87,1.46-.87,2.58v7.99h-2.47v-8.75c0-.85-.24-1.52-.72-2-.48-.48-1.15-.72-2.02-.72-.92,0-1.67.3-2.24.9s-.86,1.46-.86,2.58v7.99h-2.47Z"/><path class="cls-1" d="M179.49,19.39c-1.68,0-3.09-.38-4.21-1.14-1.12-.76-1.81-1.94-2.06-3.53l2.34-.54c.14.81.4,1.45.77,1.91.37.46.83.79,1.38.98.55.19,1.14.29,1.78.29.94,0,1.68-.18,2.21-.54.53-.36.8-.85.8-1.47s-.25-1.06-.76-1.33-1.22-.49-2.15-.65l-1-.16c-.89-.16-1.69-.4-2.42-.71-.72-.31-1.3-.73-1.73-1.26-.42-.53-.64-1.21-.64-2.02,0-1.23.47-2.19,1.4-2.88.93-.69,2.17-1.03,3.71-1.03s2.73.34,3.68,1.02c.95.68,1.56,1.62,1.83,2.81l-2.28.62c-.18-.89-.55-1.51-1.11-1.87-.56-.36-1.27-.54-2.12-.54s-1.49.15-1.97.46c-.48.31-.72.75-.72,1.33s.23,1.01.69,1.29c.46.28,1.08.48,1.86.61l1.03.19c.96.16,1.82.39,2.59.68.77.29,1.38.7,1.83,1.22.45.53.68,1.23.68,2.12,0,1.32-.49,2.35-1.48,3.07-.99.72-2.3,1.09-3.95,1.09Z"/><path class="cls-1" d="M21,44.36v-19.01h5.02l5.89,17.33h.41v-17.33h2.58v19.01h-5.05l-5.89-17.33h-.38v17.33h-2.58Z"/><path class="cls-1" d="M45.23,44.74c-1.34,0-2.52-.29-3.53-.86-1.01-.57-1.8-1.37-2.36-2.4-.56-1.03-.84-2.24-.84-3.61v-.33c0-1.39.28-2.61.84-3.64.56-1.03,1.34-1.83,2.34-2.4,1-.57,2.15-.86,3.45-.86s2.39.28,3.35.83c.97.55,1.72,1.33,2.27,2.34.54,1,.81,2.19.81,3.54v1h-10.57c.04,1.3.46,2.33,1.28,3.08.81.75,1.82,1.13,3.01,1.13,1.1,0,1.95-.25,2.53-.75s1.01-1.08,1.3-1.75l2.09,1.03c-.25.54-.62,1.1-1.1,1.66-.48.56-1.11,1.03-1.89,1.41-.78.38-1.77.57-2.99.57ZM41.02,36.4h8.01c-.07-1.12-.46-2-1.17-2.62-.71-.62-1.63-.94-2.77-.94s-2.04.31-2.76.94c-.72.62-1.15,1.5-1.32,2.62Z"/><path class="cls-1" d="M56.56,44.36l-2.47-13.34h2.47l1.96,11.68h.41l2.61-11.68h4.05l2.61,11.68h.41l1.96-11.68h2.47l-2.47,13.34h-4.18l-2.61-11.68h-.41l-2.61,11.68h-4.18Z"/><path class="cls-1" d="M88.04,44.36v-7.06l-6.71-11.95h2.99l4.81,8.85h.41l4.83-8.85h2.96l-6.68,11.95v7.06h-2.61Z"/><path class="cls-1" d="M103.3,44.74c-1.34,0-2.53-.28-3.56-.84-1.03-.56-1.84-1.35-2.42-2.38-.58-1.02-.87-2.23-.87-3.63v-.38c0-1.41.29-2.63.87-3.65.58-1.02,1.38-1.81,2.42-2.38,1.03-.56,2.22-.84,3.56-.84s2.53.28,3.56.84c1.03.56,1.84,1.35,2.43,2.38.59,1.02.88,2.24.88,3.65v.38c0,1.39-.29,2.6-.88,3.63-.59,1.02-1.4,1.82-2.43,2.38-1.03.56-2.22.84-3.56.84ZM103.3,42.54c1.32,0,2.39-.42,3.19-1.26.81-.84,1.21-2,1.21-3.46v-.24c0-1.45-.4-2.59-1.21-3.44-.8-.84-1.87-1.26-3.19-1.26s-2.36.42-3.16,1.26c-.8.84-1.21,1.99-1.21,3.44v.24c0,1.47.4,2.62,1.21,3.46.81.84,1.86,1.26,3.16,1.26Z"/><path class="cls-1" d="M113.73,44.36v-13.34h2.42v1.6h.38c.23-.58.59-1,1.07-1.26.48-.26,1.1-.39,1.86-.39h1.58v2.25h-1.71c-.92,0-1.67.25-2.25.76-.58.51-.87,1.3-.87,2.39v7.99h-2.47Z"/><path class="cls-1" d="M124.1,44.36v-19.01h2.47v11.03h.38l5.68-5.35h3.37l-7.06,6.49,7.28,6.84h-3.31l-5.95-5.68h-.38v5.68h-2.47Z"/><path class="cls-1" d="M152.7,44.74c-2.28,0-4.1-.66-5.46-1.97-1.36-1.31-2.04-3.22-2.04-5.72v-4.4c0-2.5.68-4.4,2.04-5.72,1.36-1.31,3.18-1.97,5.46-1.97s4.01.63,5.23,1.89c1.22,1.26,1.83,2.97,1.83,5.15v.16h-2.58v-.24c0-1.34-.37-2.44-1.1-3.31s-1.86-1.3-3.38-1.3-2.72.47-3.59,1.4c-.87.93-1.3,2.23-1.3,3.9v4.51c0,1.65.43,2.94,1.3,3.88.87.94,2.06,1.41,3.59,1.41s2.65-.43,3.38-1.3,1.1-1.97,1.1-3.31v-.46h2.58v.38c0,2.17-.61,3.89-1.83,5.15-1.22,1.26-2.96,1.89-5.23,1.89Z"/><path class="cls-1" d="M164.49,29.1c-.49,0-.91-.17-1.25-.5s-.52-.76-.52-1.29.17-.95.52-1.28c.34-.33.76-.49,1.25-.49.52,0,.95.16,1.29.49.33.33.5.75.5,1.28s-.17.96-.5,1.29c-.34.33-.77.5-1.29.5ZM163.27,44.36v-13.34h2.47v13.34h-2.47Z"/><path class="cls-1" d="M175,44.36c-.8,0-1.42-.23-1.86-.68-.44-.45-.67-1.07-.67-1.85v-8.69h-3.83v-2.12h3.83v-4.59h2.47v4.59h4.18v2.12h-4.18v8.28c0,.54.26.82.79.82h2.88v2.12h-3.61Z"/><path class="cls-1" d="M184.07,49.79v-2.17h7.55c.53,0,.79-.27.79-.81v-4.48h-.41c-.18.38-.45.74-.8,1.09-.35.34-.82.63-1.4.86-.58.23-1.31.34-2.2.34-.98,0-1.87-.22-2.66-.65s-1.43-1.06-1.89-1.89c-.46-.82-.69-1.82-.69-2.97v-8.07h2.47v7.88c0,1.23.31,2.14.92,2.72.62.58,1.47.87,2.55.87,1.21,0,2.2-.4,2.95-1.21.75-.81,1.13-1.98,1.13-3.52v-6.74h2.47v16.24c0,.78-.22,1.39-.67,1.85-.44.45-1.06.68-1.86.68h-8.26Z"/><path class="cls-1" d="M3.65,36.86c-.71,0-1.35-.15-1.9-.45-.55-.3-.98-.72-1.29-1.27-.31-.55-.46-1.19-.46-1.93v-.2c0-.75.15-1.4.46-1.95.31-.55.74-.97,1.29-1.27s1.18-.45,1.9-.45,1.35.15,1.9.45c.55.3.98.72,1.3,1.27.31.55.47,1.19.47,1.95v.2c0,.74-.16,1.39-.47,1.93-.31.55-.75.97-1.3,1.27-.55.3-1.18.45-1.9.45ZM3.65,35.69c.71,0,1.27-.22,1.7-.67.43-.45.64-1.06.64-1.85v-.13c0-.77-.21-1.38-.64-1.83-.43-.45-1-.67-1.7-.67s-1.26.22-1.69.67c-.43.45-.64,1.06-.64,1.83v.13c0,.78.21,1.4.64,1.85.43.45.99.67,1.69.67Z"/><path class="cls-1" d="M10.33,36.66v-5.98h-2.09v-1.13h2.09v-1.68c0-.42.12-.74.35-.98.24-.24.57-.36.99-.36h1.81v1.13h-1.42c-.28,0-.42.15-.42.43v1.46h2.14v1.13h-2.14v5.98h-1.32Z"/></svg>