<?xml version="1.0" encoding="UTF-8"?><svg id="Layer_1" xmlns="http://www.w3.org/2000/svg" viewBox="0 0 276.29 85.76"><defs><style>.cls-1{fill:#050505;}.cls-2{fill:#f1c338;}.cls-3{fill:#fc995a;}.cls-4{fill:#5d9eff;}.cls-5{fill:#58c193;}.cls-6{fill:#c773e7;}.cls-7{fill:#ff7895;}</style></defs><rect class="cls-7" x=".25" y="73.83" width="9.62" height="9.62"/><rect class="cls-4" x="18.03" y="73.83" width="9.62" height="9.62"/><rect class="cls-5" x="35.8" y="73.83" width="9.62" height="9.62"/><rect class="cls-3" x="53.58" y="73.83" width="9.62" height="9.62"/><rect class="cls-6" x="71.35" y="73.83" width="9.62" height="9.62"/><rect class="cls-2" x="89.13" y="73.83" width="9.62" height="9.62"/><path class="cls-1" d="M.21,26.96V0h16.44v3.35H3.9v8.4h11.71v3.39H3.9v11.82H.21Z"/><path class="cls-1" d="M21.04,26.96V8.05h3.43v2.27h.54c.33-.82.84-1.42,1.52-1.79.68-.37,1.56-.56,2.64-.56h2.23v3.2h-2.43c-1.31,0-2.38.36-3.2,1.08-.82.72-1.23,1.85-1.23,3.39v11.32h-3.5Z"/><path class="cls-1" d="M43.69,27.5c-1.9,0-3.57-.4-5.01-1.21-1.44-.81-2.56-1.94-3.35-3.41-.8-1.46-1.19-3.17-1.19-5.12v-.46c0-1.98.4-3.7,1.19-5.16.8-1.46,1.9-2.6,3.31-3.41,1.41-.81,3.04-1.21,4.89-1.21s3.38.39,4.76,1.17c1.37.78,2.45,1.89,3.22,3.31.77,1.42,1.16,3.1,1.16,5.03v1.42h-14.98c.05,1.85.65,3.31,1.81,4.37,1.16,1.07,2.58,1.6,4.27,1.6,1.57,0,2.76-.35,3.58-1.06.82-.71,1.44-1.53,1.85-2.48l2.97,1.46c-.36.77-.88,1.55-1.56,2.35-.68.8-1.57,1.46-2.68,2-1.1.54-2.52.81-4.24.81ZM37.72,15.67h11.36c-.1-1.59-.65-2.83-1.66-3.72-1-.89-2.31-1.33-3.93-1.33s-2.9.44-3.91,1.33c-1.01.89-1.64,2.12-1.87,3.72Z"/><path class="cls-1" d="M66.33,27.5c-1.9,0-3.57-.4-5.01-1.21-1.44-.81-2.56-1.94-3.35-3.41-.8-1.46-1.19-3.17-1.19-5.12v-.46c0-1.98.4-3.7,1.19-5.16.8-1.46,1.9-2.6,3.31-3.41,1.41-.81,3.04-1.21,4.89-1.21s3.38.39,4.76,1.17c1.37.78,2.45,1.89,3.22,3.31.77,1.42,1.16,3.1,1.16,5.03v1.42h-14.98c.05,1.85.65,3.31,1.81,4.37,1.16,1.07,2.58,1.6,4.27,1.6,1.57,0,2.76-.35,3.58-1.06.82-.71,1.44-1.53,1.85-2.48l2.97,1.46c-.36.77-.88,1.55-1.56,2.35-.68.8-1.57,1.46-2.68,2-1.1.54-2.52.81-4.24.81ZM60.36,15.67h11.36c-.1-1.59-.65-2.83-1.66-3.72-1-.89-2.31-1.33-3.93-1.33s-2.9.44-3.91,1.33c-1.01.89-1.64,2.12-1.87,3.72Z"/><path class="cls-1" d="M90.09,26.96V0h6.97l6.51,24.57h.58L110.66,0h7.01v26.96h-3.58V2.54h-.58l-6.51,24.42h-6.28l-6.51-24.42h-.54v24.42h-3.58Z"/><path class="cls-1" d="M130.88,27.31c-1.39,0-2.64-.31-3.77-.92-1.13-.62-2.02-1.51-2.68-2.7-.65-1.18-.98-2.59-.98-4.24v-11.4h3.5v11.13c0,1.77.44,3.07,1.31,3.89.87.82,2.08,1.23,3.62,1.23,1.72,0,3.11-.57,4.18-1.71s1.6-2.8,1.6-4.99v-9.55h3.5v18.91h-3.43v-3h-.58c-.39.82-1.06,1.59-2.02,2.29-.96.71-2.38,1.06-4.26,1.06Z"/><path class="cls-1" d="M154.95,27.5c-2.39,0-4.38-.54-5.97-1.62-1.59-1.08-2.57-2.75-2.93-5.01l3.31-.77c.2,1.16.57,2.06,1.1,2.71.52.65,1.18,1.12,1.96,1.39.78.27,1.62.4,2.52.4,1.33,0,2.38-.26,3.14-.77.76-.51,1.14-1.21,1.14-2.08s-.36-1.5-1.08-1.89-1.73-.69-3.04-.92l-1.42-.23c-1.26-.23-2.4-.56-3.43-1-1.03-.44-1.84-1.03-2.45-1.79-.6-.76-.9-1.71-.9-2.87,0-1.75.66-3.11,1.98-4.08,1.32-.98,3.07-1.46,5.26-1.46s3.87.48,5.22,1.44c1.35.96,2.21,2.29,2.6,3.99l-3.24.89c-.26-1.26-.78-2.14-1.58-2.66-.8-.51-1.8-.77-3-.77s-2.11.22-2.79.65c-.68.44-1.02,1.07-1.02,1.89s.33,1.43.98,1.83c.65.4,1.53.69,2.64.87l1.46.27c1.36.23,2.59.55,3.68.96,1.09.41,1.96.99,2.6,1.73.64.74.96,1.75.96,3,0,1.87-.7,3.33-2.1,4.35-1.4,1.03-3.27,1.54-5.6,1.54Z"/><path class="cls-1" d="M176.17,27.5c-1.9,0-3.57-.4-5.01-1.21-1.44-.81-2.55-1.94-3.35-3.41-.8-1.46-1.2-3.17-1.2-5.12v-.46c0-1.98.4-3.7,1.2-5.16.79-1.46,1.9-2.6,3.31-3.41,1.41-.81,3.04-1.21,4.89-1.21s3.38.39,4.76,1.17c1.37.78,2.45,1.89,3.22,3.31s1.15,3.1,1.15,5.03v1.42h-14.98c.05,1.85.65,3.31,1.81,4.37,1.16,1.07,2.58,1.6,4.28,1.6,1.56,0,2.76-.35,3.58-1.06.82-.71,1.44-1.53,1.85-2.48l2.97,1.46c-.36.77-.88,1.55-1.56,2.35-.68.8-1.57,1.46-2.68,2-1.1.54-2.52.81-4.24.81ZM170.2,15.67h11.36c-.1-1.59-.65-2.83-1.66-3.72s-2.31-1.33-3.93-1.33-2.9.44-3.91,1.33c-1.01.89-1.64,2.12-1.87,3.72Z"/><path class="cls-1" d="M197.39,27.31c-1.39,0-2.64-.31-3.77-.92s-2.02-1.51-2.68-2.7c-.65-1.18-.98-2.59-.98-4.24v-11.4h3.5v11.13c0,1.77.44,3.07,1.31,3.89.87.82,2.08,1.23,3.62,1.23,1.72,0,3.11-.57,4.18-1.71,1.06-1.14,1.6-2.8,1.6-4.99v-9.55h3.5v18.91h-3.43v-3h-.58c-.38.82-1.06,1.59-2.02,2.29-.96.71-2.38,1.06-4.26,1.06Z"/><path class="cls-1" d="M213.79,26.96V8.05h3.43v2.31h.54c.36-.67.95-1.28,1.77-1.83.82-.55,1.94-.83,3.35-.83s2.6.31,3.49.92c.88.62,1.53,1.39,1.94,2.31h.58c.44-.9,1.09-1.66,1.96-2.29.87-.63,2.09-.94,3.66-.94,1.23,0,2.32.26,3.27.77.95.51,1.71,1.26,2.27,2.23.56.98.85,2.16.85,3.54v12.71h-3.5v-12.4c0-1.21-.34-2.15-1.02-2.83-.68-.68-1.64-1.02-2.87-1.02-1.31,0-2.37.42-3.2,1.27-.82.85-1.23,2.07-1.23,3.66v11.32h-3.5v-12.4c0-1.21-.34-2.15-1.02-2.83-.68-.68-1.64-1.02-2.87-1.02-1.31,0-2.37.42-3.18,1.27s-1.21,2.07-1.21,3.66v11.32h-3.5Z"/><path class="cls-1" d="M254.5,27.5c-2.39,0-4.38-.54-5.97-1.62-1.59-1.08-2.57-2.75-2.93-5.01l3.31-.77c.2,1.16.57,2.06,1.1,2.71.52.65,1.18,1.12,1.96,1.39.78.27,1.62.4,2.52.4,1.33,0,2.38-.26,3.14-.77.76-.51,1.14-1.21,1.14-2.08s-.36-1.5-1.08-1.89-1.73-.69-3.04-.92l-1.42-.23c-1.26-.23-2.4-.56-3.43-1-1.03-.44-1.84-1.03-2.45-1.79-.6-.76-.9-1.71-.9-2.87,0-1.75.66-3.11,1.98-4.08,1.32-.98,3.07-1.46,5.26-1.46s3.87.48,5.22,1.44c1.35.96,2.21,2.29,2.6,3.99l-3.24.89c-.26-1.26-.78-2.14-1.58-2.66-.8-.51-1.8-.77-3-.77s-2.11.22-2.79.65c-.68.44-1.02,1.07-1.02,1.89s.33,1.43.98,1.83c.65.4,1.53.69,2.64.87l1.46.27c1.36.23,2.59.55,3.68.96,1.09.41,1.96.99,2.6,1.73.64.74.96,1.75.96,3,0,1.87-.7,3.33-2.1,4.35-1.4,1.03-3.27,1.54-5.6,1.54Z"/><path class="cls-1" d="M29.78,62.9v-26.96h7.13l8.36,24.57h.58v-24.57h3.66v26.96h-7.16l-8.36-24.57h-.54v24.57h-3.66Z"/><path class="cls-1" d="M64.14,63.44c-1.9,0-3.57-.4-5.01-1.21-1.44-.81-2.56-1.94-3.35-3.41-.8-1.46-1.19-3.17-1.19-5.12v-.46c0-1.98.4-3.7,1.19-5.16.8-1.46,1.9-2.6,3.31-3.41,1.41-.81,3.04-1.21,4.89-1.21s3.38.39,4.76,1.17c1.37.78,2.45,1.89,3.22,3.31.77,1.42,1.16,3.1,1.16,5.03v1.42h-14.98c.05,1.85.65,3.31,1.81,4.37,1.16,1.07,2.58,1.6,4.27,1.6,1.57,0,2.76-.35,3.58-1.06s1.44-1.53,1.85-2.48l2.97,1.46c-.36.77-.88,1.55-1.56,2.35-.68.8-1.57,1.46-2.68,2-1.1.54-2.52.81-4.24.81ZM58.17,51.62h11.36c-.1-1.59-.65-2.83-1.66-3.72-1-.89-2.31-1.33-3.93-1.33s-2.9.44-3.91,1.33c-1.01.89-1.64,2.13-1.87,3.72Z"/><path class="cls-1" d="M80.2,62.9l-3.5-18.91h3.5l2.77,16.56h.58l3.7-16.56h5.74l3.7,16.56h.58l2.77-16.56h3.5l-3.5,18.91h-5.93l-3.7-16.56h-.58l-3.7,16.56h-5.93Z"/><path class="cls-1" d="M124.83,62.9v-10.01l-9.51-16.95h4.24l6.82,12.55h.58l6.86-12.55h4.2l-9.47,16.95v10.01h-3.7Z"/><path class="cls-1" d="M146.48,63.44c-1.9,0-3.58-.4-5.04-1.19-1.47-.79-2.61-1.92-3.43-3.37-.82-1.45-1.23-3.16-1.23-5.14v-.54c0-2,.41-3.73,1.23-5.18.82-1.45,1.96-2.57,3.43-3.37,1.46-.8,3.14-1.19,5.04-1.19s3.58.4,5.05,1.19c1.47.8,2.61,1.92,3.45,3.37.83,1.45,1.25,3.18,1.25,5.18v.54c0,1.98-.42,3.69-1.25,5.14-.84,1.45-1.98,2.57-3.45,3.37-1.46.8-3.15,1.19-5.05,1.19ZM146.48,60.32c1.87,0,3.38-.6,4.53-1.79,1.14-1.19,1.71-2.83,1.71-4.91v-.35c0-2.05-.57-3.68-1.71-4.87-1.14-1.19-2.65-1.79-4.53-1.79s-3.34.6-4.49,1.79c-1.14,1.19-1.71,2.82-1.71,4.87v.35c0,2.08.57,3.72,1.71,4.91,1.14,1.19,2.64,1.79,4.49,1.79Z"/><path class="cls-1" d="M161.26,62.9v-18.91h3.43v2.27h.54c.33-.82.84-1.42,1.52-1.79.68-.37,1.56-.56,2.64-.56h2.23v3.2h-2.43c-1.31,0-2.37.36-3.2,1.08-.82.72-1.23,1.85-1.23,3.39v11.32h-3.5Z"/><path class="cls-1" d="M175.97,62.9v-26.96h3.5v15.64h.54l8.05-7.59h4.78l-10.01,9.2,10.32,9.71h-4.7l-8.43-8.05h-.54v8.05h-3.5Z"/><path class="cls-1" d="M216.52,63.44c-3.24,0-5.82-.93-7.74-2.79-1.92-1.86-2.89-4.56-2.89-8.11v-6.24c0-3.54.96-6.25,2.89-8.11,1.93-1.86,4.51-2.79,7.74-2.79s5.68.89,7.41,2.68c1.73,1.78,2.6,4.22,2.6,7.3v.23h-3.66v-.35c0-1.9-.52-3.47-1.56-4.7s-2.64-1.85-4.79-1.85-3.85.66-5.08,1.98c-1.23,1.32-1.85,3.16-1.85,5.53v6.39c0,2.34.62,4.17,1.85,5.51,1.23,1.34,2.93,2,5.08,2s3.75-.62,4.79-1.85,1.56-2.8,1.56-4.7v-.65h3.66v.54c0,3.08-.87,5.51-2.6,7.3-1.73,1.78-4.2,2.68-7.41,2.68Z"/><path class="cls-1" d="M233.24,41.26c-.69,0-1.29-.24-1.77-.71s-.73-1.08-.73-1.83.24-1.35.73-1.81c.49-.46,1.08-.69,1.77-.69.74,0,1.35.23,1.83.69.47.46.71,1.07.71,1.81s-.24,1.35-.71,1.83c-.48.47-1.09.71-1.83.71ZM231.5,62.9v-18.91h3.5v18.91h-3.5Z"/><path class="cls-1" d="M248.14,62.9c-1.13,0-2.01-.32-2.64-.96-.63-.64-.94-1.51-.94-2.62v-12.32h-5.43v-3h5.43v-6.51h3.5v6.51h5.93v3h-5.93v11.75c0,.77.37,1.16,1.12,1.16h4.08v3h-5.12Z"/><path class="cls-1" d="M261,70.6v-3.08h10.71c.74,0,1.12-.38,1.12-1.15v-6.35h-.58c-.26.54-.64,1.05-1.14,1.54-.5.49-1.16.89-1.98,1.21-.82.32-1.86.48-3.12.48-1.39,0-2.64-.31-3.77-.92s-2.02-1.51-2.68-2.68c-.65-1.17-.98-2.57-.98-4.22v-11.44h3.5v11.17c0,1.75.44,3.03,1.31,3.85.87.82,2.08,1.23,3.62,1.23,1.72,0,3.11-.57,4.18-1.71,1.06-1.14,1.6-2.8,1.6-4.99v-9.55h3.5v23.03c0,1.1-.31,1.98-.94,2.62-.63.64-1.51.96-2.64.96h-11.71Z"/><path class="cls-1" d="M5.18,52.26c-1.01,0-1.91-.21-2.69-.64-.78-.43-1.39-1.02-1.83-1.8-.44-.77-.66-1.69-.66-2.74v-.29c0-1.07.22-1.99.66-2.76.44-.77,1.05-1.37,1.83-1.8s1.68-.64,2.69-.64,1.91.21,2.69.64c.78.42,1.39,1.02,1.84,1.8.44.77.67,1.69.67,2.76v.29c0,1.05-.22,1.97-.67,2.74-.45.77-1.06,1.37-1.84,1.8-.78.42-1.68.64-2.69.64ZM5.18,50.6c1,0,1.8-.32,2.41-.96.61-.64.91-1.51.91-2.62v-.18c0-1.1-.3-1.96-.91-2.6-.61-.64-1.41-.96-2.41-.96s-1.78.32-2.39.96c-.61.64-.91,1.5-.91,2.6v.18c0,1.11.3,1.98.91,2.62.61.64,1.41.96,2.39.96Z"/><path class="cls-1" d="M14.65,51.98v-8.48h-2.96v-1.6h2.96v-2.38c0-.59.17-1.05.5-1.4.34-.34.8-.51,1.41-.51h2.57v1.6h-2.01c-.4,0-.6.21-.6.62v2.07h3.04v1.6h-3.04v8.48h-1.87Z"/><path d="M107.16,83.11v-.99h1.3v-7.28h-1.3v-.99h4.64c.54,0,1.02.1,1.44.29.42.19.75.47.98.81s.35.76.35,1.22v.11c0,.43-.08.79-.25,1.07-.17.28-.37.49-.6.65s-.45.27-.67.34v.19c.22.05.45.16.69.31.24.15.44.37.6.66s.24.64.24,1.07v.13c0,.5-.12.94-.36,1.3-.24.37-.57.64-.99.83s-.9.28-1.44.28h-4.63ZM109.57,77.94h2.14c.53,0,.95-.13,1.27-.4.32-.27.48-.62.48-1.07v-.13c0-.45-.16-.81-.47-1.08-.31-.27-.74-.4-1.28-.4h-2.14v3.08ZM109.57,82.11h2.1c.58,0,1.03-.14,1.34-.41.31-.27.46-.64.46-1.11v-.12c0-.47-.15-.84-.46-1.11-.31-.27-.75-.41-1.34-.41h-2.1v3.16Z"/><path d="M117.16,85.76v-.93h3.7c.26,0,.38-.13.38-.4v-2.36h-.19c-.09.19-.22.37-.4.55-.18.18-.42.33-.71.44-.29.11-.66.17-1.1.17-.47,0-.9-.1-1.29-.3-.39-.2-.7-.5-.93-.9-.22-.4-.34-.88-.34-1.46v-3.93h1.05v3.85c0,.64.16,1.1.48,1.39.32.29.76.44,1.3.44.62,0,1.12-.2,1.52-.61s.6-1.01.6-1.81v-3.25h1.05v7.98c0,.35-.1.63-.3.83-.2.2-.49.3-.87.3h-3.97Z"/><path d="M130.61,83.3c-.56,0-1.07-.13-1.53-.4-.47-.26-.84-.65-1.11-1.15-.27-.5-.41-1.1-.41-1.79v-.17c0-.69.14-1.28.41-1.78.27-.5.64-.88,1.1-1.15.46-.27.98-.4,1.54-.4.45,0,.83.06,1.14.18.31.12.57.27.76.45.19.18.34.37.45.58h.19v-3.81h1.05v9.26h-1.02v-1.07h-.19c-.18.33-.45.62-.82.87s-.89.38-1.56.38ZM130.89,82.37c.67,0,1.21-.21,1.63-.64s.63-1.03.63-1.79v-.12c0-.77-.21-1.37-.63-1.79s-.96-.64-1.63-.64-1.21.21-1.63.64c-.43.43-.64,1.03-.64,1.79v.12c0,.77.21,1.37.64,1.79.43.43.97.64,1.63.64Z"/><path d="M139.36,83.3c-.65,0-1.23-.14-1.72-.42-.49-.28-.88-.67-1.15-1.17-.27-.5-.41-1.08-.41-1.75v-.16c0-.67.14-1.26.41-1.76.27-.5.65-.89,1.14-1.17.48-.28,1.04-.42,1.67-.42s1.15.13,1.61.39c.47.26.83.63,1.1,1.12s.4,1.05.4,1.71v.48h-5.28c.03.7.25,1.24.67,1.63.42.39.95.59,1.59.59.56,0,.98-.13,1.28-.38.3-.25.53-.56.69-.91l.9.44c-.13.27-.32.55-.55.82s-.54.5-.91.69-.85.28-1.44.28ZM137.14,79.29h4.21c-.04-.6-.24-1.07-.62-1.4-.38-.34-.85-.5-1.44-.5s-1.08.17-1.46.5c-.38.33-.61.8-.7,1.4Z"/><path d="M144.23,83.11v-9.26h1.05v9.26h-1.05Z"/><path d="M150.45,83.3c-.63,0-1.19-.13-1.69-.4-.5-.27-.89-.65-1.18-1.16-.29-.5-.43-1.1-.43-1.79v-.15c0-.7.14-1.29.43-1.79.29-.5.68-.88,1.18-1.15.5-.27,1.06-.4,1.69-.4s1.14.12,1.58.34c.44.23.78.53,1.03.91.25.38.41.79.48,1.22l-1.02.21c-.04-.32-.15-.61-.31-.87-.16-.26-.39-.48-.68-.63-.29-.16-.65-.24-1.07-.24s-.82.1-1.16.29c-.34.19-.61.47-.81.83s-.3.79-.3,1.3v.12c0,.5.1.94.3,1.3.2.36.47.64.81.83.34.19.72.29,1.16.29.64,0,1.14-.17,1.48-.5s.55-.75.63-1.24l1.03.23c-.1.42-.27.82-.53,1.2-.26.38-.6.68-1.04.91-.44.23-.96.34-1.58.34Z"/><path d="M155.38,83.11v-6.47h1.02v.79h.18c.12-.28.29-.49.53-.62.24-.13.55-.2.94-.2h.77v.95h-.83c-.47,0-.84.13-1.13.39-.29.26-.43.66-.43,1.21v3.94h-1.05Z"/><path d="M163.12,83.3c-.65,0-1.23-.14-1.73-.41s-.89-.66-1.16-1.16c-.28-.5-.42-1.09-.42-1.77v-.17c0-.67.14-1.26.42-1.76.28-.5.67-.89,1.16-1.17s1.07-.41,1.73-.41,1.23.14,1.73.41c.5.27.89.66,1.17,1.17.28.5.42,1.09.42,1.76v.17c0,.68-.14,1.27-.42,1.77-.28.5-.67.88-1.17,1.16-.5.27-1.07.41-1.73.41ZM163.12,82.36c.69,0,1.24-.22,1.65-.66s.62-1.03.62-1.77v-.12c0-.74-.21-1.33-.62-1.77s-.96-.66-1.65-.66-1.23.22-1.64.66c-.41.44-.62,1.03-.62,1.77v.12c0,.74.21,1.33.62,1.77.42.44.96.66,1.64.66Z"/><path d="M168.78,83.3c-.26,0-.47-.08-.64-.25-.17-.17-.26-.38-.26-.65s.09-.48.26-.65c.17-.17.39-.25.64-.25s.48.08.65.25.25.38.25.65-.08.48-.25.65-.38.25-.65.25Z"/><path d="M174.45,83.3c-.63,0-1.19-.13-1.69-.4-.5-.27-.89-.65-1.18-1.16-.29-.5-.43-1.1-.43-1.79v-.15c0-.7.14-1.29.43-1.79.29-.5.68-.88,1.18-1.15.5-.27,1.06-.4,1.69-.4s1.14.12,1.58.34.78.53,1.03.91c.25.38.41.79.48,1.22l-1.02.21c-.04-.32-.15-.61-.31-.87s-.39-.48-.68-.63c-.29-.16-.65-.24-1.07-.24s-.82.1-1.16.29c-.34.19-.61.47-.81.83-.2.36-.3.79-.3,1.3v.12c0,.5.1.94.3,1.3.2.36.47.64.81.83.34.19.73.29,1.16.29.64,0,1.14-.17,1.48-.5s.55-.75.63-1.24l1.03.23c-.1.42-.27.82-.53,1.2-.26.38-.6.68-1.04.91-.44.23-.96.34-1.58.34Z"/><path d="M182.37,83.3c-.65,0-1.23-.14-1.73-.41s-.89-.66-1.16-1.16c-.28-.5-.42-1.09-.42-1.77v-.17c0-.67.14-1.26.42-1.76.28-.5.67-.89,1.16-1.17s1.07-.41,1.73-.41,1.23.14,1.73.41c.5.27.89.66,1.17,1.17.28.5.42,1.09.42,1.76v.17c0,.68-.14,1.27-.42,1.77-.28.5-.67.88-1.17,1.16-.5.27-1.07.41-1.73.41ZM182.37,82.36c.69,0,1.24-.22,1.65-.66s.62-1.03.62-1.77v-.12c0-.74-.21-1.33-.62-1.77s-.96-.66-1.65-.66-1.23.22-1.64.66c-.41.44-.62,1.03-.62,1.77v.12c0,.74.21,1.33.62,1.77.42.44.96.66,1.64.66Z"/></svg>